M48
INCH
T01C0.0600
T02C0.0400
T03C0.0334
T04C0.0300
T05C0.0551
T06C0.0700
T07C0.0393
%
T01
X+013000Y-002000
X+015000Y-002000
X+017724Y+008014
X+013000Y+008014
X+015362Y+008802
X+017724Y+003211
X+013000Y+003211
X+006531Y-002000
X+004531Y-002000
T02
X+051363Y+004802
X+051363Y+005802
X+001551Y+027041
X+001551Y+026041
X+001551Y+025041
X+001551Y+024041
X+001551Y+023041
X+016031Y+033531
X+017031Y+033531
X+018031Y+033531
X+019031Y+033531
X+020031Y+033531
X+021031Y+033531
X+022031Y+033531
X+023031Y+033531
X+024031Y+033531
X+025031Y+033531
X+026031Y+033531
X+027031Y+033531
X+028031Y+033531
X+029031Y+033531
X+030031Y+033531
X+031031Y+033531
X+023031Y+026031
X+022031Y+026031
X+020031Y+026031
X+019031Y+026031
X+028031Y+023031
X+029031Y+023031
X+029500Y-004000
X+030500Y-004000
X+031500Y-004000
X+032500Y-004000
X+052065Y+024521
X+052065Y+025521
X+052065Y+026521
X+052065Y+027521
X+052065Y+028521
X+024000Y-004634
X+023000Y-004634
X+022000Y-004634
X+033651Y+036081
X+034651Y+036081
X+035651Y+036081
X+036651Y+036081
X+037651Y+036081
X+027253Y-004657
X+026253Y-004657
X+013031Y+015531
X+017031Y+015531
X+003531Y+018781
X+007531Y+018781
X+047519Y+002913
T03
X+046031Y+005409
X+046031Y+004031
X+037500Y+007063
X+037500Y+009031
X+046031Y+009031
X+046031Y+007653
X+049531Y+009031
X+049531Y+007653
X+046000Y+000000
X+046000Y+001377
T04
X+040031Y+006031
X+043031Y+006031
X+032031Y+026031
X+031031Y+026031
X+030031Y+026031
X+029031Y+026031
X+028031Y+026031
X+027031Y+026031
X+026031Y+026031
X+025031Y+026031
X+024031Y+026031
X+021031Y+026031
X+019031Y+023031
X+020031Y+023031
X+021031Y+023031
X+022031Y+023031
X+023031Y+023031
X+024031Y+023031
X+025031Y+023031
X+026031Y+023031
X+027031Y+023031
X+030031Y+023031
X+031031Y+023031
X+032024Y+023031
X+024531Y+028031
X+022531Y+028031
X+025031Y+029531
X+024031Y+029531
X+022031Y+029531
X+023031Y+029531
X+018031Y+027031
X+018031Y+023031
X+017031Y+027031
X+017031Y+023031
X+016031Y+027031
X+016031Y+023031
X+015031Y+027031
X+015031Y+023031
X+030031Y+031531
X+026031Y+031531
X+018031Y+030531
X+022031Y+030531
X+027095Y+010031
X+027095Y+006031
X+026095Y+006031
X+026095Y+010031
X+025095Y+006031
X+025095Y+010031
X+046455Y+014553
X+050455Y+014553
X+052031Y+011031
X+052038Y+012897
X+052031Y+031031
X+052038Y+032897
X+024095Y+008031
X+024095Y+010031
X+037531Y+031531
X+033531Y+031531
X+014631Y+017031
X+013831Y+017031
X+013031Y+017031
X+017781Y+020281
X+013781Y+020281
X+022200Y+011031
X+025095Y+011031
X+014031Y+027031
X+031031Y+032531
X+026531Y+032531
X+034531Y+032531
X+038531Y+032531
X+032531Y+032531
X+032531Y+035531
X+020031Y+032531
X+022031Y+031531
X+017781Y+021281
X+013781Y+021281
X+010531Y+021331
X+010531Y+020531
X+010531Y+019731
X+043531Y+033531
X+043531Y+030531
X+047519Y+000913
X+050519Y+002913
X+050519Y+000913
X+048500Y-001500
X+048500Y-004500
T05
X+043201Y+009787
X+042531Y+008031
X+041862Y+009787
X+041197Y+008031
X+040524Y+009787
X+046500Y-001500
X+045830Y-003255
X+045161Y-001500
X+044496Y-003255
X+043822Y-001500
T06
X+003481Y+011020
X+007531Y+011000
X+001911Y+004940
X+001961Y+001990
X+005501Y+012140
X+009151Y+005970
T07
X+014000Y+022500
X+012000Y+010500
X+018500Y+010500
M30
